<svg width="25" height="24" viewBox="0 0 25 24" fill="none" xmlns="http://www.w3.org/2000/svg">
<path d="M20.5835 3.75H4.0835C3.68567 3.75 3.30414 3.90804 3.02284 4.18934C2.74153 4.47064 2.5835 4.85218 2.5835 5.25V18.75C2.5835 19.1478 2.74153 19.5294 3.02284 19.8107C3.30414 20.092 3.68567 20.25 4.0835 20.25H20.5835C20.9813 20.25 21.3629 20.092 21.6442 19.8107C21.9255 19.5294 22.0835 19.1478 22.0835 18.75V5.25C22.0835 4.85218 21.9255 4.47064 21.6442 4.18934C21.3629 3.90804 20.9813 3.75 20.5835 3.75ZM19.0835 16.5C19.2824 16.5 19.4732 16.579 19.6138 16.7197C19.7545 16.8603 19.8335 17.0511 19.8335 17.25C19.8335 17.4489 19.7545 17.6397 19.6138 17.7803C19.4732 17.921 19.2824 18 19.0835 18H5.5835C5.38458 18 5.19382 17.921 5.05317 17.7803C4.91251 17.6397 4.8335 17.4489 4.8335 17.25V6.75C4.8335 6.55109 4.91251 6.36032 5.05317 6.21967C5.19382 6.07902 5.38458 6 5.5835 6C5.78241 6 5.97317 6.07902 6.11383 6.21967C6.25448 6.36032 6.3335 6.55109 6.3335 6.75V12.6488L9.6035 9.92344C9.72776 9.81989 9.88216 9.75929 10.0437 9.75067C10.2052 9.74205 10.3652 9.78588 10.4997 9.87562L14.531 12.5653L18.6007 9.17344C18.7536 9.04613 18.9508 8.98479 19.149 9.0029C19.3471 9.02101 19.5299 9.11709 19.6572 9.27C19.7845 9.42291 19.8459 9.62014 19.8278 9.81828C19.8097 10.0164 19.7136 10.1993 19.5607 10.3266L15.0607 14.0766C14.9364 14.1801 14.782 14.2407 14.6205 14.2493C14.459 14.2579 14.299 14.2141 14.1644 14.1244L10.1332 11.4347L6.3335 14.6016V16.5H19.0835Z" fill="url(#paint0_linear_213_309)"/>
<defs>
<linearGradient id="paint0_linear_213_309" x1="12.3335" y1="3.75" x2="12.3335" y2="20.25" gradientUnits="userSpaceOnUse">
<stop stop-color="#7C3AED"/>
<stop offset="1" stop-color="#7C3AED"/>
</linearGradient>
</defs>
</svg>
