<svg width="25" height="24" viewBox="0 0 25 24" fill="none" xmlns="http://www.w3.org/2000/svg">
<path d="M20.583 3.75H4.08301C3.68518 3.75 3.30365 3.90804 3.02235 4.18934C2.74104 4.47064 2.58301 4.85218 2.58301 5.25V18.75C2.58301 19.1478 2.74104 19.5294 3.02235 19.8107C3.30365 20.092 3.68518 20.25 4.08301 20.25H20.583C20.9808 20.25 21.3624 20.092 21.6437 19.8107C21.925 19.5294 22.083 19.1478 22.083 18.75V5.25C22.083 4.85218 21.925 4.47064 21.6437 4.18934C21.3624 3.90804 20.9808 3.75 20.583 3.75ZM19.083 16.5C19.2819 16.5 19.4727 16.579 19.6133 16.7197C19.754 16.8603 19.833 17.0511 19.833 17.25C19.833 17.4489 19.754 17.6397 19.6133 17.7803C19.4727 17.921 19.2819 18 19.083 18H5.58301C5.3841 18 5.19333 17.921 5.05268 17.7803C4.91203 17.6397 4.83301 17.4489 4.83301 17.25V6.75C4.83301 6.55109 4.91203 6.36032 5.05268 6.21967C5.19333 6.07902 5.3841 6 5.58301 6C5.78192 6 5.97269 6.07902 6.11334 6.21967C6.25399 6.36032 6.33301 6.55109 6.33301 6.75V12.6488L9.60301 9.92344C9.72727 9.81989 9.88167 9.75929 10.0432 9.75067C10.2047 9.74205 10.3647 9.78588 10.4993 9.87562L14.5305 12.5653L18.6002 9.17344C18.7531 9.04613 18.9503 8.98479 19.1485 9.0029C19.3466 9.02101 19.5295 9.11709 19.6568 9.27C19.7841 9.42291 19.8454 9.62014 19.8273 9.81828C19.8092 10.0164 19.7131 10.1993 19.5602 10.3266L15.0602 14.0766C14.9359 14.1801 14.7815 14.2407 14.62 14.2493C14.4585 14.2579 14.2985 14.2141 14.1639 14.1244L10.1327 11.4347L6.33301 14.6016V16.5H19.083Z" fill="url(#paint0_linear_130_200)"/>
<defs>
<linearGradient id="paint0_linear_130_200" x1="12.333" y1="3.75" x2="12.333" y2="20.25" gradientUnits="userSpaceOnUse">
<stop stop-color="#913DFF"/>
<stop offset="1" stop-color="#572599"/>
</linearGradient>
</defs>
</svg>
