<svg width="12" height="14" viewBox="0 0 12 14" fill="none" xmlns="http://www.w3.org/2000/svg">
<path d="M6.96125 0.115524C6.89961 0.0642784 6.82656 0.0286032 6.74824 0.011506C6.66993 -0.00559124 6.58865 -0.00360934 6.51127 0.0172845C6.43388 0.0381784 6.36265 0.0773718 6.30359 0.131561C6.24452 0.185749 6.19935 0.253345 6.17188 0.328649L4.79688 4.10427L3.28687 2.64115C3.23616 2.59196 3.17561 2.55408 3.10919 2.53C3.04278 2.50592 2.97201 2.49619 2.90157 2.50145C2.83112 2.5067 2.76258 2.52683 2.70047 2.5605C2.63837 2.59416 2.5841 2.64061 2.54125 2.69677C1.1875 4.47052 0.5 6.2549 0.5 7.9999C0.5 9.45859 1.07946 10.8575 2.11091 11.889C3.14236 12.9204 4.54131 13.4999 6 13.4999C7.45869 13.4999 8.85764 12.9204 9.88909 11.889C10.9205 10.8575 11.5 9.45859 11.5 7.9999C11.5 4.28427 8.32563 1.2499 6.96125 0.115524ZM9.49312 8.58365C9.36347 9.30784 9.01506 9.97492 8.49478 10.4951C7.9745 11.0153 7.30734 11.3635 6.58313 11.493C6.55567 11.4977 6.52786 11.5 6.5 11.4999C6.37458 11.4999 6.25375 11.4527 6.16148 11.3678C6.06921 11.2828 6.01223 11.1663 6.00185 11.0413C5.99146 10.9163 6.02843 10.792 6.10542 10.693C6.18242 10.594 6.2938 10.5275 6.4175 10.5068C7.45312 10.3324 8.33187 9.45365 8.5075 8.41615C8.52971 8.28536 8.60297 8.16876 8.71115 8.09199C8.81934 8.01521 8.95359 7.98456 9.08438 8.00677C9.21516 8.02899 9.33176 8.10224 9.40854 8.21043C9.48531 8.31861 9.51596 8.45286 9.49375 8.58365H9.49312Z" fill="url(#paint0_linear_130_404)"/>
<defs>
<linearGradient id="paint0_linear_130_404" x1="6" y1="0" x2="6" y2="13.4999" gradientUnits="userSpaceOnUse">
<stop stop-color="#913DFF"/>
<stop offset="1" stop-color="#572599"/>
</linearGradient>
</defs>
</svg>
