<svg width="25" height="24" viewBox="0 0 25 24" fill="none" xmlns="http://www.w3.org/2000/svg">
<path d="M22.0835 11.25H21.3016C21.2139 10.1805 20.9338 9.13559 20.4747 8.16562L21.1526 7.77469C21.3249 7.67523 21.4506 7.5114 21.5021 7.31923C21.5536 7.12707 21.5267 6.92231 21.4272 6.75C21.3278 6.57769 21.164 6.45195 20.9718 6.40044C20.7796 6.34892 20.5749 6.37586 20.4026 6.47531L19.7229 6.86812C19.1094 5.98839 18.3451 5.22411 17.4654 4.61063L17.8582 3.93094C17.9576 3.75863 17.9846 3.55387 17.9331 3.3617C17.8815 3.16954 17.7558 3.00571 17.5835 2.90625C17.4112 2.80679 17.2064 2.77986 17.0143 2.83137C16.8221 2.88289 16.6583 3.00863 16.5588 3.18094L16.1679 3.85875C15.1979 3.39969 14.153 3.11957 13.0835 3.03188V2.25C13.0835 2.05109 13.0045 1.86032 12.8638 1.71967C12.7232 1.57902 12.5324 1.5 12.3335 1.5C12.1346 1.5 11.9438 1.57902 11.8032 1.71967C11.6625 1.86032 11.5835 2.05109 11.5835 2.25V3.03188C10.514 3.11957 9.46908 3.39969 8.49912 3.85875L8.10818 3.18094C8.00873 3.00863 7.8449 2.88289 7.65273 2.83137C7.46056 2.77986 7.2558 2.80679 7.0835 2.90625C6.91119 3.00571 6.78545 3.16954 6.73393 3.3617C6.68242 3.55387 6.70935 3.75863 6.80881 3.93094L7.20162 4.61063C6.32188 5.22411 5.55761 5.98839 4.94412 6.86812L4.26443 6.47531C4.17912 6.42607 4.08493 6.39411 3.98726 6.38126C3.88959 6.36841 3.79035 6.37493 3.6952 6.40044C3.50303 6.45195 3.3392 6.57769 3.23975 6.75C3.14029 6.92231 3.11336 7.12707 3.16487 7.31923C3.21638 7.5114 3.34213 7.67523 3.51443 7.77469L4.19225 8.16562C3.73319 9.13559 3.45307 10.1805 3.36537 11.25H2.5835C2.38458 11.25 2.19382 11.329 2.05317 11.4697C1.91251 11.6103 1.8335 11.8011 1.8335 12C1.8335 12.1989 1.91251 12.3897 2.05317 12.5303C2.19382 12.671 2.38458 12.75 2.5835 12.75H3.36537C3.45307 13.8195 3.73319 14.8644 4.19225 15.8344L3.51443 16.2253C3.37137 16.3078 3.25954 16.4353 3.1963 16.5878C3.13306 16.7404 3.12195 16.9096 3.16469 17.0691C3.20743 17.2286 3.30163 17.3696 3.43268 17.4701C3.56372 17.5706 3.72428 17.6251 3.88943 17.625C4.02112 17.6254 4.15054 17.5908 4.26443 17.5247L4.94412 17.1319C5.55761 18.0116 6.32188 18.7759 7.20162 19.3894L6.80881 20.0691C6.70935 20.2414 6.68242 20.4461 6.73393 20.6383C6.78545 20.8305 6.91119 20.9943 7.0835 21.0938C7.2558 21.1932 7.46056 21.2201 7.65273 21.1686C7.8449 21.1171 8.00873 20.9914 8.10818 20.8191L8.49912 20.1413C9.46908 20.6003 10.514 20.8804 11.5835 20.9681V21.75C11.5835 21.9489 11.6625 22.1397 11.8032 22.2803C11.9438 22.421 12.1346 22.5 12.3335 22.5C12.5324 22.5 12.7232 22.421 12.8638 22.2803C13.0045 22.1397 13.0835 21.9489 13.0835 21.75V20.9681C14.153 20.8804 15.1979 20.6003 16.1679 20.1413L16.5588 20.8191C16.6583 20.9914 16.8221 21.1171 17.0143 21.1686C17.2064 21.2201 17.4112 21.1932 17.5835 21.0938C17.7558 20.9943 17.8815 20.8305 17.9331 20.6383C17.9846 20.4461 17.9576 20.2414 17.8582 20.0691L17.4654 19.3894C18.3451 18.7759 19.1094 18.0116 19.7229 17.1319L20.4026 17.5247C20.4879 17.574 20.5821 17.6059 20.6797 17.6188C20.7774 17.6316 20.8766 17.6251 20.9718 17.5996C21.067 17.5741 21.1562 17.5301 21.2343 17.4701C21.3125 17.4101 21.378 17.3353 21.4272 17.25C21.5268 17.0778 21.5539 16.8731 21.5026 16.681C21.4512 16.4888 21.3257 16.3249 21.1535 16.2253L20.4757 15.8344C20.9347 14.8644 21.2149 13.8195 21.3026 12.75H22.0835C22.2824 12.75 22.4732 12.671 22.6138 12.5303C22.7545 12.3897 22.8335 12.1989 22.8335 12C22.8335 11.8011 22.7545 11.6103 22.6138 11.4697C22.4732 11.329 22.2824 11.25 22.0835 11.25ZM7.0835 12C7.08311 11.2055 7.26335 10.4213 7.61059 9.70665C7.95783 8.99203 8.46299 8.36569 9.08787 7.875L11.4672 12L9.08787 16.125C8.46299 15.6343 7.95783 15.008 7.61059 14.2934C7.26335 13.5787 7.08311 12.7945 7.0835 12ZM12.3335 17.25C11.6661 17.2507 11.0048 17.1234 10.3854 16.875L12.7666 12.75H17.5291C17.3471 13.9987 16.7222 15.1403 15.7683 15.9664C14.8145 16.7925 13.5954 17.2481 12.3335 17.25ZM12.7666 11.25L10.3854 7.125C11.1228 6.83039 11.9175 6.70692 12.7096 6.76389C13.5017 6.82085 14.2706 7.05677 14.9583 7.45388C15.646 7.85099 16.2347 8.39894 16.68 9.05648C17.1253 9.71402 17.4156 10.464 17.5291 11.25H12.7666Z" fill="url(#paint0_linear_213_296)"/>
<defs>
<linearGradient id="paint0_linear_213_296" x1="12.3335" y1="1.5" x2="12.3335" y2="22.5" gradientUnits="userSpaceOnUse">
<stop stop-color="#7C3AED"/>
<stop offset="1" stop-color="#7C3AED"/>
</linearGradient>
</defs>
</svg>
