<svg width="25" height="24" viewBox="0 0 25 24" fill="none" xmlns="http://www.w3.org/2000/svg">
<path d="M22.083 11.25H21.3011C21.2134 10.1805 20.9333 9.13559 20.4743 8.16562L21.1521 7.77469C21.3244 7.67523 21.4501 7.5114 21.5016 7.31923C21.5531 7.12707 21.5262 6.92231 21.4268 6.75C21.3273 6.57769 21.1635 6.45195 20.9713 6.40044C20.7791 6.34892 20.5744 6.37586 20.4021 6.47531L19.7224 6.86812C19.1089 5.98839 18.3446 5.22411 17.4649 4.61063L17.8577 3.93094C17.9572 3.75863 17.9841 3.55387 17.9326 3.3617C17.8811 3.16954 17.7553 3.00571 17.583 2.90625C17.4107 2.80679 17.2059 2.77986 17.0138 2.83137C16.8216 2.88289 16.6578 3.00863 16.5583 3.18094L16.1674 3.85875C15.1974 3.39969 14.1525 3.11957 13.083 3.03188V2.25C13.083 2.05109 13.004 1.86032 12.8633 1.71967C12.7227 1.57902 12.5319 1.5 12.333 1.5C12.1341 1.5 11.9433 1.57902 11.8027 1.71967C11.662 1.86032 11.583 2.05109 11.583 2.25V3.03188C10.5135 3.11957 9.4686 3.39969 8.49863 3.85875L8.1077 3.18094C8.00824 3.00863 7.84441 2.88289 7.65224 2.83137C7.46007 2.77986 7.25532 2.80679 7.08301 2.90625C6.9107 3.00571 6.78496 3.16954 6.73344 3.3617C6.68193 3.55387 6.70886 3.75863 6.80832 3.93094L7.20113 4.61063C6.3214 5.22411 5.55712 5.98839 4.94363 6.86812L4.26395 6.47531C4.17863 6.42607 4.08444 6.39411 3.98678 6.38126C3.88911 6.36841 3.78986 6.37493 3.69471 6.40044C3.50255 6.45195 3.33871 6.57769 3.23926 6.75C3.1398 6.92231 3.11287 7.12707 3.16438 7.31923C3.2159 7.5114 3.34164 7.67523 3.51395 7.77469L4.19176 8.16562C3.7327 9.13559 3.45258 10.1805 3.36488 11.25H2.58301C2.3841 11.25 2.19333 11.329 2.05268 11.4697C1.91203 11.6103 1.83301 11.8011 1.83301 12C1.83301 12.1989 1.91203 12.3897 2.05268 12.5303C2.19333 12.671 2.3841 12.75 2.58301 12.75H3.36488C3.45258 13.8195 3.7327 14.8644 4.19176 15.8344L3.51395 16.2253C3.37088 16.3078 3.25905 16.4353 3.19581 16.5878C3.13257 16.7404 3.12146 16.9096 3.1642 17.0691C3.20694 17.2286 3.30115 17.3696 3.43219 17.4701C3.56323 17.5706 3.72379 17.6251 3.88895 17.625C4.02063 17.6254 4.15005 17.5908 4.26395 17.5247L4.94363 17.1319C5.55712 18.0116 6.3214 18.7759 7.20113 19.3894L6.80832 20.0691C6.70886 20.2414 6.68193 20.4461 6.73344 20.6383C6.78496 20.8305 6.9107 20.9943 7.08301 21.0938C7.25532 21.1932 7.46007 21.2201 7.65224 21.1686C7.84441 21.1171 8.00824 20.9914 8.1077 20.8191L8.49863 20.1413C9.4686 20.6003 10.5135 20.8804 11.583 20.9681V21.75C11.583 21.9489 11.662 22.1397 11.8027 22.2803C11.9433 22.421 12.1341 22.5 12.333 22.5C12.5319 22.5 12.7227 22.421 12.8633 22.2803C13.004 22.1397 13.083 21.9489 13.083 21.75V20.9681C14.1525 20.8804 15.1974 20.6003 16.1674 20.1413L16.5583 20.8191C16.6578 20.9914 16.8216 21.1171 17.0138 21.1686C17.2059 21.2201 17.4107 21.1932 17.583 21.0938C17.7553 20.9943 17.8811 20.8305 17.9326 20.6383C17.9841 20.4461 17.9572 20.2414 17.8577 20.0691L17.4649 19.3894C18.3446 18.7759 19.1089 18.0116 19.7224 17.1319L20.4021 17.5247C20.4874 17.574 20.5816 17.6059 20.6792 17.6188C20.7769 17.6316 20.8762 17.6251 20.9713 17.5996C21.0665 17.5741 21.1557 17.5301 21.2338 17.4701C21.312 17.4101 21.3775 17.3353 21.4268 17.25C21.5263 17.0778 21.5534 16.8731 21.5021 16.681C21.4508 16.4888 21.3252 16.3249 21.153 16.2253L20.4752 15.8344C20.9343 14.8644 21.2144 13.8195 21.3021 12.75H22.083C22.2819 12.75 22.4727 12.671 22.6133 12.5303C22.754 12.3897 22.833 12.1989 22.833 12C22.833 11.8011 22.754 11.6103 22.6133 11.4697C22.4727 11.329 22.2819 11.25 22.083 11.25ZM7.08301 12C7.08262 11.2055 7.26286 10.4213 7.6101 9.70665C7.95734 8.99203 8.4625 8.36569 9.08738 7.875L11.4668 12L9.08738 16.125C8.4625 15.6343 7.95734 15.008 7.6101 14.2934C7.26286 13.5787 7.08262 12.7945 7.08301 12ZM12.333 17.25C11.6656 17.2507 11.0043 17.1234 10.3849 16.875L12.7661 12.75H17.5286C17.3466 13.9987 16.7217 15.1403 15.7678 15.9664C14.814 16.7925 13.5949 17.2481 12.333 17.25ZM12.7661 11.25L10.3849 7.125C11.1224 6.83039 11.917 6.70692 12.7091 6.76389C13.5012 6.82085 14.2701 7.05677 14.9578 7.45388C15.6455 7.85099 16.2342 8.39894 16.6795 9.05648C17.1248 9.71402 17.4151 10.464 17.5286 11.25H12.7661Z" fill="url(#paint0_linear_130_358)"/>
<defs>
<linearGradient id="paint0_linear_130_358" x1="12.333" y1="1.5" x2="12.333" y2="22.5" gradientUnits="userSpaceOnUse">
<stop stop-color="#913DFF"/>
<stop offset="1" stop-color="#572599"/>
</linearGradient>
</defs>
</svg>
