<svg width="24" height="24" viewBox="0 0 24 24" fill="none" xmlns="http://www.w3.org/2000/svg">
<path d="M12 0.625C9.75024 0.625 7.551 1.29213 5.68039 2.54203C3.80978 3.79193 2.35182 5.56847 1.49088 7.64698C0.629929 9.72548 0.404666 12.0126 0.843573 14.2192C1.28248 16.4257 2.36584 18.4525 3.95667 20.0433C5.54749 21.6342 7.57432 22.7175 9.78085 23.1564C11.9874 23.5953 14.2745 23.3701 16.353 22.5091C18.4315 21.6482 20.2081 20.1902 21.458 18.3196C22.7079 16.449 23.375 14.2498 23.375 12C23.3715 8.98423 22.172 6.09297 20.0395 3.9605C17.907 1.82802 15.0158 0.628474 12 0.625ZM20.5706 7.625H16.6714C16.1804 5.82349 15.3528 4.13121 14.2323 2.6375C15.5861 2.9627 16.8535 3.57679 17.9477 4.43765C19.0419 5.29852 19.9371 6.38582 20.5717 7.625H20.5706ZM21.625 12C21.6258 12.8876 21.5032 13.7711 21.2608 14.625H17.0488C17.3171 12.8853 17.3171 11.1147 17.0488 9.375H21.2608C21.5032 10.2289 21.6258 11.1124 21.625 12ZM12 2.70312C13.3102 4.10588 14.2829 5.78929 14.8438 7.625H9.15625C9.71657 5.78904 10.6893 4.10551 12 2.70312ZM9.15625 16.375H14.8438C14.2834 18.211 13.3107 19.8945 12 21.2969C10.6898 19.8941 9.71714 18.2107 9.15625 16.375ZM8.72969 14.625C8.42928 12.8879 8.42928 11.1121 8.72969 9.375H15.2791C15.5795 11.1121 15.5795 12.8879 15.2791 14.625H8.72969ZM14.2367 21.3625C15.3572 19.8688 16.1847 18.1765 16.6758 16.375H20.5761C19.941 17.6147 19.0452 18.7023 17.9502 19.5631C16.8552 20.424 15.5869 21.0379 14.2323 21.3625H14.2367Z" fill="url(#paint0_linear_181_187)"/>
<defs>
<linearGradient id="paint0_linear_181_187" x1="12" y1="0.625" x2="12" y2="23.375" gradientUnits="userSpaceOnUse">
<stop stop-color="#913DFF"/>
<stop offset="1" stop-color="#572599"/>
</linearGradient>
</defs>
</svg>
