<svg width="24" height="24" viewBox="0 0 24 24" fill="none" xmlns="http://www.w3.org/2000/svg">
<path d="M13.1943 1.50757C16.5806 1.68757 19.4312 3.93784 20.5225 6.99878C20.5428 7.05539 20.5501 7.11594 20.542 7.17554C20.5339 7.23516 20.5112 7.29237 20.4766 7.34155C20.442 7.3905 20.3959 7.43014 20.3428 7.45776C20.2895 7.48537 20.2299 7.49976 20.1699 7.49976H18C17.8904 7.49916 17.7822 7.52329 17.6826 7.56909C17.5831 7.6149 17.4947 7.68178 17.4238 7.76538L15.0322 10.6365C14.5347 10.4516 13.9878 10.4484 13.4883 10.6277C12.9887 10.807 12.5681 11.1568 12.3018 11.616C12.0354 12.0751 11.9399 12.6138 12.0322 13.1365C12.1245 13.6592 12.3992 14.1323 12.8066 14.4724C13.2141 14.8125 13.729 14.9975 14.2598 14.9949C14.7904 14.9922 15.303 14.8018 15.707 14.4578C16.1109 14.1137 16.3806 13.6383 16.4678 13.115C16.5549 12.5916 16.4542 12.0538 16.1836 11.5974L18.3516 8.99585H20.6162C20.7117 8.99566 20.8044 9.03119 20.874 9.09644C20.9437 9.16177 20.9852 9.25207 20.9912 9.34741C20.9968 9.41542 21 9.48386 21 9.55249C21.0266 10.7906 20.7747 12.0191 20.2637 13.1472C19.7526 14.2752 18.9952 15.2746 18.0469 16.071L18.7441 21.6472C18.7624 21.7963 18.7356 21.9472 18.667 22.0808C18.5983 22.2145 18.4914 22.3252 18.3594 22.3972C18.2426 22.4604 18.1113 22.4927 17.9785 22.491H11.25C11.0512 22.4909 10.8603 22.4118 10.7197 22.2712C10.5791 22.1306 10.5001 21.9398 10.5 21.741V20.991H6.75C6.35224 20.9909 5.97072 20.8328 5.68945 20.5515C5.4082 20.2703 5.25006 19.8887 5.25 19.491V16.5847L3.10254 15.6013L3.0791 15.5896C2.73561 15.4178 2.47083 15.1206 2.33984 14.7595C2.20899 14.3986 2.22164 14.0012 2.375 13.6492L2.39551 13.6072L4.5 9.56226C4.54202 7.74646 5.1812 5.9951 6.31836 4.57886C7.4556 3.16252 9.02801 2.16051 10.792 1.72729C10.8469 1.71479 10.9041 1.71472 10.959 1.72729C11.0139 1.7399 11.0654 1.76439 11.1094 1.79956C11.1534 1.83473 11.1885 1.87965 11.2129 1.93042C11.2373 1.98128 11.2501 2.03711 11.25 2.09351V4.62476C10.7496 4.80169 10.3281 5.15037 10.0596 5.60815C9.79114 6.0659 9.69249 6.60369 9.78223 7.12671C9.87199 7.64982 10.144 8.12445 10.5498 8.46655C10.9556 8.80862 11.4693 8.99582 12 8.99585C12.5307 8.99585 13.0444 8.80856 13.4502 8.46655C13.856 8.12446 14.128 7.6498 14.2178 7.12671C14.3075 6.60365 14.2089 6.06593 13.9404 5.60815C13.6719 5.15035 13.2504 4.80168 12.75 4.62476V1.88257C12.75 1.83218 12.7606 1.78247 12.7803 1.73608C12.8 1.68965 12.8289 1.64707 12.8652 1.61206C12.9015 1.57723 12.9443 1.54992 12.9912 1.53198C13.0383 1.51399 13.0892 1.50568 13.1396 1.50757H13.1943ZM14.25 11.9949C14.6641 11.9949 14.9998 12.3309 15 12.7449C15 13.1591 14.6642 13.4949 14.25 13.4949C13.8358 13.4949 13.5 13.1591 13.5 12.7449C13.5002 12.3308 13.8359 11.9949 14.25 11.9949ZM12 5.99487C12.4141 5.99489 12.7498 6.33086 12.75 6.74487C12.75 7.15908 12.4142 7.49485 12 7.49487C11.5858 7.49487 11.25 7.15909 11.25 6.74487C11.2502 6.33085 11.5859 5.99487 12 5.99487Z" fill="url(#paint0_linear_213_326)"/>
<defs>
<linearGradient id="paint0_linear_213_326" x1="11.6259" y1="1.50757" x2="11.6259" y2="22.4913" gradientUnits="userSpaceOnUse">
<stop stop-color="#7C3AED"/>
<stop offset="1" stop-color="#7C3AED"/>
</linearGradient>
</defs>
</svg>
