<svg width="24" height="24" viewBox="0 0 24 24" fill="none" xmlns="http://www.w3.org/2000/svg">
<path d="M13.1943 1.50783C16.5805 1.68783 19.4321 3.93811 20.5234 6.99904C20.5435 7.05552 20.55 7.11637 20.5419 7.1758C20.5338 7.23526 20.511 7.29176 20.4765 7.34084C20.4419 7.38994 20.396 7.43036 20.3427 7.45803C20.2894 7.48565 20.2299 7.50003 20.1698 7.50002H17.9999C17.8904 7.49943 17.782 7.52265 17.6825 7.56838C17.5829 7.61422 17.4946 7.68196 17.4238 7.76564L15.0322 10.6358C14.5346 10.4509 13.9878 10.4486 13.4882 10.6279C12.9886 10.8073 12.568 11.1571 12.3017 11.6162C12.0354 12.0753 11.9399 12.6141 12.0322 13.1367C12.1245 13.6593 12.3991 14.1326 12.8066 14.4727C13.214 14.8127 13.729 14.9978 14.2597 14.9951C14.7903 14.9924 15.3029 14.8021 15.707 14.458C16.111 14.1139 16.3805 13.6378 16.4677 13.1143C16.5548 12.5908 16.4543 12.0531 16.1835 11.5967L18.3515 8.99514H20.6171C20.7125 8.99506 20.8044 9.0315 20.8739 9.0967C20.9436 9.16197 20.9861 9.25147 20.9921 9.3467C20.9977 9.41482 20.9999 9.484 20.9999 9.55275C21.0265 10.7908 20.7756 12.0195 20.2646 13.1475C19.7535 14.2755 18.9951 15.2739 18.0468 16.0703L18.7441 21.6475C18.7623 21.7966 18.7355 21.9475 18.6669 22.0811C18.5982 22.2148 18.4913 22.3255 18.3593 22.3975C18.2425 22.4606 18.1112 22.4929 17.9784 22.4912H11.2499C11.0511 22.4912 10.8602 22.412 10.7197 22.2715C10.5791 22.131 10.5 21.94 10.4999 21.7412V20.9912H6.74992C6.35223 20.9912 5.97062 20.833 5.68938 20.5518C5.40818 20.2706 5.25005 19.8889 5.24992 19.4912V16.585L3.10246 15.6006L3.07903 15.5899C2.73553 15.418 2.47076 15.1208 2.33977 14.7598C2.20885 14.3988 2.2216 14.0015 2.37492 13.6494L2.39543 13.6074L4.49992 9.56252C4.54189 7.74671 5.18116 5.9954 6.31828 4.57912C7.45552 3.16278 9.02793 2.1598 10.7919 1.72658C10.8468 1.7141 10.904 1.71402 10.9589 1.72658C11.0139 1.73917 11.0652 1.76459 11.1093 1.79982C11.1533 1.83503 11.1884 1.87986 11.2128 1.93068C11.2372 1.98156 11.2501 2.03735 11.2499 2.09377V4.62502C10.7497 4.80194 10.328 5.14981 10.0595 5.60744C9.79094 6.06525 9.6924 6.60385 9.78215 7.12697C9.87195 7.64998 10.144 8.12477 10.5497 8.46682C10.9555 8.80882 11.4693 8.99607 11.9999 8.99611C12.5305 8.99611 13.0444 8.80873 13.4501 8.46682C13.8558 8.12478 14.1279 7.64996 14.2177 7.12697C14.3074 6.60386 14.2099 6.06524 13.9413 5.60744C13.6728 5.14963 13.2503 4.80194 12.7499 4.62502V1.88283C12.7499 1.83238 12.7605 1.78181 12.7802 1.73537C12.7999 1.68911 12.829 1.64722 12.8652 1.61232C12.9014 1.57745 12.9442 1.55022 12.9911 1.53225C13.0383 1.51425 13.0892 1.50594 13.1396 1.50783H13.1943ZM14.2499 11.9951C14.6641 11.9951 14.9998 12.331 14.9999 12.7451C14.9999 13.1594 14.6641 13.4951 14.2499 13.4951C13.8357 13.4951 13.4999 13.1593 13.4999 12.7451C13.5 12.331 13.8358 11.9952 14.2499 11.9951ZM11.9999 5.99514C12.4141 5.99514 12.7498 6.33099 12.7499 6.74514C12.7499 7.15935 12.4141 7.49514 11.9999 7.49514C11.5857 7.49511 11.2499 7.15934 11.2499 6.74514C11.25 6.33101 11.5858 5.99516 11.9999 5.99514Z" fill="url(#paint0_linear_130_346)"/>
<defs>
<linearGradient id="paint0_linear_130_346" x1="11.6259" y1="1.50757" x2="11.6259" y2="22.4913" gradientUnits="userSpaceOnUse">
<stop stop-color="#913DFF"/>
<stop offset="1" stop-color="#572599"/>
</linearGradient>
</defs>
</svg>
