<svg width="24" height="24" viewBox="0 0 24 24" fill="none" xmlns="http://www.w3.org/2000/svg">
<path d="M10.1826 4.93209C10.3584 4.75636 10.6426 4.75636 10.8184 4.93209C10.9941 5.10783 10.9941 5.39211 10.8184 5.56784L4.83594 11.5503H20.2505C20.499 11.5503 20.7002 11.7514 20.7002 12C20.7002 12.2485 20.499 12.4497 20.2505 12.4497H4.83594L10.8184 18.4321L10.8762 18.5024C10.9915 18.6771 10.9721 18.9141 10.8184 19.0678C10.6646 19.2216 10.4276 19.241 10.2529 19.1257L10.1826 19.0678L3.43262 12.3178C3.40026 12.2855 3.37542 12.2485 3.35498 12.2102C3.32148 12.1472 3.30079 12.0763 3.30078 12C3.30078 11.9234 3.32131 11.8521 3.35498 11.789C3.37538 11.7509 3.4004 11.7143 3.43262 11.6821L10.1826 4.93209Z" fill="url(#paint0_linear_74_1127)"/>
<defs>
<linearGradient id="paint0_linear_74_1127" x1="12.0005" y1="4.80029" x2="12.0005" y2="19.1997" gradientUnits="userSpaceOnUse">
<stop stop-color="#913DFF"/>
<stop offset="1" stop-color="#572599"/>
</linearGradient>
</defs>
</svg>
