<svg width="22" height="25" viewBox="0 0 22 25" fill="none" xmlns="http://www.w3.org/2000/svg">
<path d="M19.75 8.75H16.25V6.125C16.25 4.73261 15.6969 3.39726 14.7123 2.41269C13.7277 1.42812 12.3924 0.875 11 0.875C9.60761 0.875 8.27226 1.42812 7.28769 2.41269C6.30312 3.39726 5.75 4.73261 5.75 6.125V8.75H2.25C1.78587 8.75 1.34075 8.93437 1.01256 9.26256C0.684374 9.59075 0.5 10.0359 0.5 10.5V22.75C0.5 23.2141 0.684374 23.6592 1.01256 23.9874C1.34075 24.3156 1.78587 24.5 2.25 24.5H19.75C20.2141 24.5 20.6592 24.3156 20.9874 23.9874C21.3156 23.6592 21.5 23.2141 21.5 22.75V10.5C21.5 10.0359 21.3156 9.59075 20.9874 9.26256C20.6592 8.93437 20.2141 8.75 19.75 8.75ZM11.875 17.3502V20.125C11.875 20.3571 11.7828 20.5796 11.6187 20.7437C11.4546 20.9078 11.2321 21 11 21C10.7679 21 10.5454 20.9078 10.3813 20.7437C10.2172 20.5796 10.125 20.3571 10.125 20.125V17.3502C9.54119 17.1437 9.04914 16.7376 8.73582 16.2035C8.4225 15.6694 8.30809 15.0417 8.4128 14.4314C8.51752 13.8211 8.83461 13.2674 9.30805 12.8683C9.78148 12.4692 10.3808 12.2503 11 12.2503C11.6192 12.2503 12.2185 12.4692 12.692 12.8683C13.1654 13.2674 13.4825 13.8211 13.5872 14.4314C13.6919 15.0417 13.5775 15.6694 13.2642 16.2035C12.9509 16.7376 12.4588 17.1437 11.875 17.3502ZM14.5 8.75H7.5V6.125C7.5 5.19674 7.86875 4.3065 8.52513 3.65013C9.1815 2.99375 10.0717 2.625 11 2.625C11.9283 2.625 12.8185 2.99375 13.4749 3.65013C14.1313 4.3065 14.5 5.19674 14.5 6.125V8.75Z" fill="url(#paint0_linear_181_53)"/>
<defs>
<linearGradient id="paint0_linear_181_53" x1="11" y1="0.875" x2="11" y2="24.5" gradientUnits="userSpaceOnUse">
<stop stop-color="#913DFF"/>
<stop offset="1" stop-color="#572599"/>
</linearGradient>
</defs>
</svg>
