<svg width="28" height="28" viewBox="0 0 28 28" fill="none" xmlns="http://www.w3.org/2000/svg">
<path d="M14 0C11.2311 0 8.52431 0.821086 6.22202 2.35943C3.91973 3.89776 2.12532 6.08427 1.06569 8.64243C0.00606598 11.2006 -0.271181 14.0155 0.269012 16.7313C0.809205 19.447 2.14258 21.9416 4.10051 23.8995C6.05845 25.8574 8.55301 27.1908 11.2687 27.731C13.9845 28.2712 16.7994 27.9939 19.3576 26.9343C21.9157 25.8747 24.1022 24.0803 25.6406 21.778C27.1789 19.4757 28 16.7689 28 14C27.9961 10.2882 26.5198 6.72949 23.8952 4.10483C21.2705 1.48017 17.7118 0.00391976 14 0ZM19.3846 15.0769H8.61539C8.32977 15.0769 8.05585 14.9635 7.85389 14.7615C7.65193 14.5595 7.53847 14.2856 7.53847 14C7.53847 13.7144 7.65193 13.4405 7.85389 13.2385C8.05585 13.0365 8.32977 12.9231 8.61539 12.9231H19.3846C19.6702 12.9231 19.9442 13.0365 20.1461 13.2385C20.3481 13.4405 20.4615 13.7144 20.4615 14C20.4615 14.2856 20.3481 14.5595 20.1461 14.7615C19.9442 14.9635 19.6702 15.0769 19.3846 15.0769Z" fill="white"/>
</svg>
