<svg width="25" height="24" viewBox="0 0 25 24" fill="none" xmlns="http://www.w3.org/2000/svg">
<path d="M20.917 3.75H13.417V2.25C13.417 2.05109 13.338 1.86032 13.1973 1.71967C13.0567 1.57902 12.8659 1.5 12.667 1.5C12.4681 1.5 12.2773 1.57902 12.1367 1.71967C11.996 1.86032 11.917 2.05109 11.917 2.25V3.75H4.41699C4.01917 3.75 3.63764 3.90804 3.35633 4.18934C3.07503 4.47064 2.91699 4.85218 2.91699 5.25V16.5C2.91699 16.8978 3.07503 17.2794 3.35633 17.5607C3.63764 17.842 4.01917 18 4.41699 18H8.10699L6.08105 20.5313C5.95673 20.6867 5.89924 20.8851 5.92122 21.0829C5.94319 21.2807 6.04284 21.4616 6.19824 21.5859C6.35364 21.7103 6.55206 21.7678 6.74986 21.7458C6.94765 21.7238 7.12861 21.6242 7.25293 21.4688L10.027 18H15.307L18.0811 21.4688C18.1426 21.5457 18.2187 21.6098 18.305 21.6573C18.3914 21.7048 18.4862 21.7349 18.5841 21.7458C18.6821 21.7567 18.7812 21.7481 18.8758 21.7207C18.9705 21.6933 19.0588 21.6475 19.1357 21.5859C19.2127 21.5244 19.2768 21.4483 19.3243 21.362C19.3718 21.2756 19.4019 21.1808 19.4128 21.0829C19.4237 20.9849 19.4151 20.8858 19.3877 20.7912C19.3603 20.6965 19.3145 20.6082 19.2529 20.5313L17.227 18H20.917C21.3148 18 21.6963 17.842 21.9777 17.5607C22.259 17.2794 22.417 16.8978 22.417 16.5V5.25C22.417 4.85218 22.259 4.47064 21.9777 4.18934C21.6963 3.90804 21.3148 3.75 20.917 3.75ZM10.417 13.5C10.417 13.6989 10.338 13.8897 10.1973 14.0303C10.0567 14.171 9.8659 14.25 9.66699 14.25C9.46808 14.25 9.27731 14.171 9.13666 14.0303C8.99601 13.8897 8.91699 13.6989 8.91699 13.5V11.25C8.91699 11.0511 8.99601 10.8603 9.13666 10.7197C9.27731 10.579 9.46808 10.5 9.66699 10.5C9.8659 10.5 10.0567 10.579 10.1973 10.7197C10.338 10.8603 10.417 11.0511 10.417 11.25V13.5ZM13.417 13.5C13.417 13.6989 13.338 13.8897 13.1973 14.0303C13.0567 14.171 12.8659 14.25 12.667 14.25C12.4681 14.25 12.2773 14.171 12.1367 14.0303C11.996 13.8897 11.917 13.6989 11.917 13.5V9.75C11.917 9.55109 11.996 9.36032 12.1367 9.21967C12.2773 9.07902 12.4681 9 12.667 9C12.8659 9 13.0567 9.07902 13.1973 9.21967C13.338 9.36032 13.417 9.55109 13.417 9.75V13.5ZM16.417 13.5C16.417 13.6989 16.338 13.8897 16.1973 14.0303C16.0567 14.171 15.8659 14.25 15.667 14.25C15.4681 14.25 15.2773 14.171 15.1367 14.0303C14.996 13.8897 14.917 13.6989 14.917 13.5V8.25C14.917 8.05109 14.996 7.86032 15.1367 7.71967C15.2773 7.57902 15.4681 7.5 15.667 7.5C15.8659 7.5 16.0567 7.57902 16.1973 7.71967C16.338 7.86032 16.417 8.05109 16.417 8.25V13.5Z" fill="url(#paint0_linear_130_364)"/>
<defs>
<linearGradient id="paint0_linear_130_364" x1="12.667" y1="1.5" x2="12.667" y2="21.7504" gradientUnits="userSpaceOnUse">
<stop stop-color="#913DFF"/>
<stop offset="1" stop-color="#572599"/>
</linearGradient>
</defs>
</svg>
