<svg width="25" height="24" viewBox="0 0 25 24" fill="none" xmlns="http://www.w3.org/2000/svg">
<path d="M20.9165 3.75H13.4165V2.25C13.4165 2.05109 13.3375 1.86032 13.1968 1.71967C13.0562 1.57902 12.8654 1.5 12.6665 1.5C12.4676 1.5 12.2768 1.57902 12.1362 1.71967C11.9955 1.86032 11.9165 2.05109 11.9165 2.25V3.75H4.4165C4.01868 3.75 3.63715 3.90804 3.35584 4.18934C3.07454 4.47064 2.9165 4.85218 2.9165 5.25V16.5C2.9165 16.8978 3.07454 17.2794 3.35584 17.5607C3.63715 17.842 4.01868 18 4.4165 18H8.1065L6.08057 20.5313C5.95625 20.6867 5.89875 20.8851 5.92073 21.0829C5.9427 21.2807 6.04235 21.4616 6.19775 21.5859C6.35315 21.7103 6.55158 21.7678 6.74937 21.7458C6.94716 21.7238 7.12812 21.6242 7.25244 21.4688L10.0265 18H15.3065L18.0806 21.4688C18.1421 21.5457 18.2182 21.6098 18.3046 21.6573C18.3909 21.7048 18.4857 21.7349 18.5836 21.7458C18.6816 21.7567 18.7807 21.7481 18.8753 21.7207C18.97 21.6933 19.0583 21.6475 19.1353 21.5859C19.2122 21.5244 19.2763 21.4483 19.3238 21.362C19.3713 21.2756 19.4014 21.1808 19.4123 21.0829C19.4232 20.9849 19.4146 20.8858 19.3872 20.7912C19.3598 20.6965 19.314 20.6082 19.2524 20.5313L17.2265 18H20.9165C21.3143 18 21.6959 17.842 21.9772 17.5607C22.2585 17.2794 22.4165 16.8978 22.4165 16.5V5.25C22.4165 4.85218 22.2585 4.47064 21.9772 4.18934C21.6959 3.90804 21.3143 3.75 20.9165 3.75ZM10.4165 13.5C10.4165 13.6989 10.3375 13.8897 10.1968 14.0303C10.0562 14.171 9.86542 14.25 9.6665 14.25C9.46759 14.25 9.27683 14.171 9.13617 14.0303C8.99552 13.8897 8.9165 13.6989 8.9165 13.5V11.25C8.9165 11.0511 8.99552 10.8603 9.13617 10.7197C9.27683 10.579 9.46759 10.5 9.6665 10.5C9.86542 10.5 10.0562 10.579 10.1968 10.7197C10.3375 10.8603 10.4165 11.0511 10.4165 11.25V13.5ZM13.4165 13.5C13.4165 13.6989 13.3375 13.8897 13.1968 14.0303C13.0562 14.171 12.8654 14.25 12.6665 14.25C12.4676 14.25 12.2768 14.171 12.1362 14.0303C11.9955 13.8897 11.9165 13.6989 11.9165 13.5V9.75C11.9165 9.55109 11.9955 9.36032 12.1362 9.21967C12.2768 9.07902 12.4676 9 12.6665 9C12.8654 9 13.0562 9.07902 13.1968 9.21967C13.3375 9.36032 13.4165 9.55109 13.4165 9.75V13.5ZM16.4165 13.5C16.4165 13.6989 16.3375 13.8897 16.1968 14.0303C16.0562 14.171 15.8654 14.25 15.6665 14.25C15.4676 14.25 15.2768 14.171 15.1362 14.0303C14.9955 13.8897 14.9165 13.6989 14.9165 13.5V8.25C14.9165 8.05109 14.9955 7.86032 15.1362 7.71967C15.2768 7.57902 15.4676 7.5 15.6665 7.5C15.8654 7.5 16.0562 7.57902 16.1968 7.71967C16.3375 7.86032 16.4165 8.05109 16.4165 8.25V13.5Z" fill="url(#paint0_linear_213_272)"/>
<defs>
<linearGradient id="paint0_linear_213_272" x1="12.6665" y1="1.5" x2="12.6665" y2="21.7504" gradientUnits="userSpaceOnUse">
<stop stop-color="#7C3AED"/>
<stop offset="1" stop-color="#7C3AED"/>
</linearGradient>
</defs>
</svg>
