<svg width="18" height="16" viewBox="0 0 18 16" fill="none" xmlns="http://www.w3.org/2000/svg">
<path d="M10.8184 0.932095C10.6426 0.756359 10.3584 0.756359 10.1826 0.932095C10.0069 1.10783 10.0069 1.39211 10.1826 1.56784L16.165 7.55026H0.750488C0.50196 7.55026 0.300781 7.75144 0.300781 7.99997C0.300812 8.24847 0.501979 8.44967 0.750488 8.44967H16.165L10.1826 14.4321L10.1248 14.5024C10.0094 14.6771 10.0289 14.9141 10.1826 15.0678C10.3364 15.2216 10.5734 15.241 10.748 15.1257L10.8184 15.0678L17.5684 8.31784C17.6007 8.28547 17.6256 8.24854 17.646 8.21017C17.6795 8.14724 17.7002 8.07629 17.7002 7.99997C17.7002 7.92343 17.6797 7.85209 17.646 7.78903C17.6256 7.75085 17.6006 7.71431 17.5684 7.68209L10.8184 0.932095Z" fill="url(#paint0_linear_130_417)"/>
<defs>
<linearGradient id="paint0_linear_130_417" x1="9.00049" y1="0.800293" x2="9.00049" y2="15.1997" gradientUnits="userSpaceOnUse">
<stop stop-color="#913DFF"/>
<stop offset="1" stop-color="#572599"/>
</linearGradient>
</defs>
</svg>
