<svg width="17" height="16" viewBox="0 0 17 16" fill="none" xmlns="http://www.w3.org/2000/svg">
<path d="M6.8655 11.9462C6.58362 12.5625 5.643 14 2.99987 14C2.86726 14 2.74009 13.9473 2.64632 13.8535C2.55255 13.7598 2.49987 13.6326 2.49987 13.5C2.49987 10.8569 3.93737 9.91623 4.55362 9.63435C4.61337 9.6071 4.67791 9.59189 4.74354 9.58958C4.80917 9.58727 4.87461 9.59791 4.93613 9.62089C4.99765 9.64388 5.05404 9.67875 5.10208 9.72353C5.15012 9.7683 5.18887 9.8221 5.21612 9.88185C5.24337 9.9416 5.25859 10.0061 5.26089 10.0718C5.2632 10.1374 5.25256 10.2028 5.22958 10.2644C5.2066 10.3259 5.17172 10.3823 5.12695 10.4303C5.08217 10.4784 5.02837 10.5171 4.96862 10.5444C4.56675 10.7275 3.67987 11.3169 3.52362 12.9762C5.183 12.82 5.77362 11.9331 5.9555 11.5312C5.98275 11.4715 6.0215 11.4177 6.06954 11.3729C6.11758 11.3281 6.17397 11.2933 6.23549 11.2703C6.29701 11.2473 6.36245 11.2366 6.42808 11.239C6.49371 11.2413 6.55825 11.2565 6.618 11.2837C6.67775 11.311 6.73155 11.3497 6.77632 11.3978C6.8211 11.4458 6.85597 11.5022 6.87896 11.5637C6.90194 11.6252 6.91258 11.6907 6.91027 11.7563C6.90796 11.8219 6.89275 11.8865 6.8655 11.9462ZM14.4905 2.94623C14.4757 2.70243 14.3722 2.47249 14.1994 2.29978C14.0267 2.12707 13.7968 2.02354 13.553 2.00873C12.7667 1.96185 10.7574 2.03373 9.0905 3.7006L5.99987 6.79373C5.95346 6.84022 5.89834 6.87712 5.83767 6.90232C5.77699 6.92751 5.71195 6.94051 5.64625 6.94057C5.51357 6.94068 5.38628 6.88809 5.29237 6.79435C5.19847 6.70061 5.14565 6.57341 5.14553 6.44073C5.14541 6.30805 5.19801 6.18076 5.29175 6.08685L6.95175 4.42623C6.9865 4.39127 7.01014 4.34682 7.0197 4.29846C7.02926 4.2501 7.02431 4.2 7.00548 4.15445C6.98664 4.10889 6.95476 4.06993 6.91384 4.04244C6.87292 4.01496 6.82479 4.00018 6.7755 3.99998H5.14675C5.01502 3.99928 4.88447 4.02478 4.76269 4.075C4.64091 4.12521 4.53033 4.19914 4.43737 4.29248L2.29362 6.43748C2.16215 6.56886 2.0699 6.73428 2.02722 6.91517C1.98453 7.09607 1.99311 7.28528 2.05198 7.46158C2.11085 7.63787 2.21769 7.79427 2.36051 7.91322C2.50332 8.03216 2.67646 8.10896 2.8605 8.13498L5.26487 8.4706L8.028 11.2337L8.36362 13.6394C8.38943 13.8234 8.4662 13.9966 8.58527 14.1392C8.70433 14.2819 8.86093 14.3885 9.03737 14.4469C9.14014 14.4812 9.24777 14.4987 9.35612 14.4987C9.48732 14.499 9.61727 14.4733 9.73848 14.4231C9.85969 14.3729 9.96977 14.2992 10.0624 14.2062L12.2074 12.0625C12.3004 11.9693 12.3742 11.8587 12.4244 11.737C12.4746 11.6152 12.5002 11.4848 12.4999 11.3531V9.72435C12.4998 9.67493 12.4851 9.62664 12.4575 9.58559C12.43 9.54454 12.391 9.51256 12.3453 9.4937C12.2996 9.47484 12.2494 9.46994 12.2009 9.47962C12.1524 9.48931 12.1079 9.51314 12.073 9.5481L10.4124 11.2081C10.3638 11.2567 10.3057 11.2948 10.2418 11.32C10.1778 11.3452 10.1094 11.3569 10.0407 11.3544C9.97204 11.3519 9.90461 11.3354 9.84263 11.3057C9.78065 11.276 9.72546 11.2338 9.6805 11.1819C9.59848 11.0826 9.5568 10.9562 9.56375 10.8277C9.5707 10.6991 9.62576 10.5779 9.718 10.4881L12.7974 7.40873C14.4655 5.74123 14.5374 3.73185 14.4905 2.94498V2.94623Z" fill="url(#paint0_linear_31_453)"/>
<defs>
<linearGradient id="paint0_linear_31_453" x1="8.2501" y1="1.99951" x2="8.2501" y2="14.4987" gradientUnits="userSpaceOnUse">
<stop stop-color="#7C3AED"/>
<stop offset="1" stop-color="#7C3AED"/>
</linearGradient>
</defs>
</svg>
