<svg width="17" height="16" viewBox="0 0 17 16" fill="none" xmlns="http://www.w3.org/2000/svg">
<path d="M6.86501 11.9462C6.58313 12.5625 5.64251 14 2.99938 14C2.86678 14 2.7396 13.9473 2.64583 13.8535C2.55206 13.7598 2.49938 13.6326 2.49938 13.5C2.49938 10.8569 3.93688 9.91623 4.55313 9.63435C4.61289 9.6071 4.67742 9.59189 4.74305 9.58958C4.80868 9.58727 4.87412 9.59791 4.93564 9.62089C4.99716 9.64388 5.05355 9.67875 5.10159 9.72353C5.14963 9.7683 5.18838 9.8221 5.21563 9.88185C5.24288 9.9416 5.2581 10.0061 5.26041 10.0718C5.26272 10.1374 5.25207 10.2028 5.22909 10.2644C5.20611 10.3259 5.17124 10.3823 5.12646 10.4303C5.08168 10.4784 5.02789 10.5171 4.96813 10.5444C4.56626 10.7275 3.67938 11.3169 3.52313 12.9762C5.18251 12.82 5.77313 11.9331 5.95501 11.5312C5.98226 11.4715 6.02101 11.4177 6.06905 11.3729C6.11709 11.3281 6.17348 11.2933 6.235 11.2703C6.29652 11.2473 6.36196 11.2366 6.42759 11.239C6.49322 11.2413 6.55776 11.2565 6.61751 11.2837C6.67726 11.311 6.73106 11.3497 6.77584 11.3978C6.82061 11.4458 6.85548 11.5022 6.87847 11.5637C6.90145 11.6252 6.91209 11.6907 6.90978 11.7563C6.90747 11.8219 6.89226 11.8865 6.86501 11.9462ZM14.49 2.94623C14.4752 2.70243 14.3717 2.47249 14.199 2.29978C14.0262 2.12707 13.7963 2.02354 13.5525 2.00873C12.7663 1.96185 10.7569 2.03373 9.09001 3.7006L5.99938 6.79373C5.95297 6.84022 5.89785 6.87712 5.83718 6.90232C5.7765 6.92751 5.71146 6.94051 5.64576 6.94057C5.51308 6.94068 5.38579 6.88809 5.29188 6.79435C5.19798 6.70061 5.14516 6.57341 5.14504 6.44073C5.14493 6.30805 5.19752 6.18076 5.29126 6.08685L6.95126 4.42623C6.98601 4.39127 7.00965 4.34682 7.01921 4.29846C7.02877 4.2501 7.02382 4.2 7.00499 4.15445C6.98615 4.10889 6.95427 4.06993 6.91335 4.04244C6.87243 4.01496 6.8243 4.00018 6.77501 3.99998H5.14626C5.01453 3.99928 4.88398 4.02478 4.7622 4.075C4.64042 4.12521 4.52984 4.19914 4.43688 4.29248L2.29313 6.43748C2.16166 6.56886 2.06941 6.73428 2.02673 6.91517C1.98404 7.09607 1.99262 7.28528 2.05149 7.46158C2.11036 7.63787 2.2172 7.79427 2.36002 7.91322C2.50284 8.03216 2.67598 8.10896 2.86001 8.13498L5.26438 8.4706L8.02751 11.2337L8.36313 13.6394C8.38894 13.8234 8.46572 13.9966 8.58478 14.1392C8.70384 14.2819 8.86044 14.3885 9.03688 14.4469C9.13965 14.4812 9.24728 14.4987 9.35563 14.4987C9.48683 14.499 9.61678 14.4733 9.73799 14.4231C9.8592 14.3729 9.96928 14.2992 10.0619 14.2062L12.2069 12.0625C12.2999 11.9693 12.3737 11.8587 12.4239 11.737C12.4741 11.6152 12.4997 11.4848 12.4994 11.3531V9.72435C12.4993 9.67493 12.4846 9.62664 12.4571 9.58559C12.4295 9.54454 12.3905 9.51256 12.3448 9.4937C12.2991 9.47484 12.2489 9.46994 12.2004 9.47962C12.1519 9.48931 12.1074 9.51314 12.0725 9.5481L10.4119 11.2081C10.3633 11.2567 10.3052 11.2948 10.2413 11.32C10.1774 11.3452 10.1089 11.3569 10.0402 11.3544C9.97155 11.3519 9.90412 11.3354 9.84214 11.3057C9.78016 11.276 9.72497 11.2338 9.68001 11.1819C9.59799 11.0826 9.55631 10.9562 9.56326 10.8277C9.57021 10.6991 9.62528 10.5779 9.71751 10.4881L12.7969 7.40873C14.465 5.74123 14.5369 3.73185 14.49 2.94498V2.94623Z" fill="url(#paint0_linear_74_823)"/>
<defs>
<linearGradient id="paint0_linear_74_823" x1="8.24961" y1="1.99951" x2="8.24961" y2="14.4987" gradientUnits="userSpaceOnUse">
<stop stop-color="#913DFF"/>
<stop offset="1" stop-color="#572599"/>
</linearGradient>
</defs>
</svg>
