<svg width="28" height="28" viewBox="0 0 28 28" fill="none" xmlns="http://www.w3.org/2000/svg">
<path d="M22.75 14.875C23.2141 14.875 23.6591 15.0595 23.9873 15.3877C24.3155 15.7159 24.5 16.1609 24.5 16.625V21.875C24.5 22.3391 24.3155 22.7841 23.9873 23.1123C23.6591 23.4405 23.2141 23.625 22.75 23.625H5.25C4.78587 23.625 4.34088 23.4405 4.0127 23.1123C3.68451 22.7841 3.5 22.3391 3.5 21.875V16.625C3.5 16.1609 3.68451 15.7159 4.0127 15.3877C4.34088 15.0595 4.78587 14.875 5.25 14.875H22.75ZM19.4316 17.9629C19.177 18.0135 18.9433 18.1387 18.7598 18.3223C18.5762 18.5058 18.451 18.7395 18.4004 18.9941C18.3498 19.2486 18.3754 19.5123 18.4746 19.752C18.5739 19.9916 18.7424 20.1966 18.958 20.3408C19.1738 20.485 19.4279 20.5625 19.6875 20.5625C20.0356 20.5625 20.3691 20.4239 20.6152 20.1777C20.8614 19.9316 21 19.5981 21 19.25C21 18.9904 20.9225 18.7363 20.7783 18.5205C20.6341 18.3049 20.4291 18.1364 20.1895 18.0371C19.9498 17.9379 19.6861 17.9123 19.4316 17.9629ZM22.75 4.375C23.2141 4.375 23.6591 4.55951 23.9873 4.8877C24.3155 5.21588 24.5 5.66087 24.5 6.125V11.375C24.5 11.8391 24.3155 12.2841 23.9873 12.6123C23.6591 12.9405 23.2141 13.125 22.75 13.125H5.25C4.78587 13.125 4.34088 12.9405 4.0127 12.6123C3.68451 12.2841 3.5 11.8391 3.5 11.375V6.125C3.5 5.66087 3.68451 5.21588 4.0127 4.8877C4.34088 4.55951 4.78587 4.375 5.25 4.375H22.75ZM19.4316 7.46289C19.177 7.51353 18.9433 7.63871 18.7598 7.82227C18.5762 8.00582 18.451 8.23954 18.4004 8.49414C18.3498 8.74856 18.3754 9.01228 18.4746 9.25195C18.5739 9.49162 18.7424 9.69662 18.958 9.84082C19.1738 9.98504 19.4279 10.0625 19.6875 10.0625C20.0356 10.0625 20.3691 9.92388 20.6152 9.67773C20.8614 9.43159 21 9.0981 21 8.75C21 8.49041 20.9225 8.23635 20.7783 8.02051C20.6341 7.80488 20.4291 7.63638 20.1895 7.53711C19.9498 7.43792 19.6861 7.41232 19.4316 7.46289Z" fill="url(#paint0_linear_177_2648)"/>
<defs>
<linearGradient id="paint0_linear_177_2648" x1="14" y1="4.375" x2="14" y2="23.625" gradientUnits="userSpaceOnUse">
<stop stop-color="#7C3AED"/>
<stop offset="1" stop-color="#7C3AED"/>
</linearGradient>
</defs>
</svg>
