<svg width="22" height="20" viewBox="0 0 22 20" fill="none" xmlns="http://www.w3.org/2000/svg">
<path d="M19.75 10.875C20.2141 10.875 20.6591 11.0595 20.9873 11.3877C21.3155 11.7159 21.5 12.1609 21.5 12.625V17.875C21.5 18.3391 21.3155 18.7841 20.9873 19.1123C20.6591 19.4405 20.2141 19.625 19.75 19.625H2.25C1.78587 19.625 1.34088 19.4405 1.0127 19.1123C0.684507 18.7841 0.5 18.3391 0.5 17.875V12.625C0.5 12.1609 0.684507 11.7159 1.0127 11.3877C1.34088 11.0595 1.78587 10.875 2.25 10.875H19.75ZM16.4316 13.9629C16.177 14.0135 15.9433 14.1387 15.7598 14.3223C15.5762 14.5058 15.451 14.7395 15.4004 14.9941C15.3498 15.2486 15.3754 15.5123 15.4746 15.752C15.5739 15.9916 15.7424 16.1966 15.958 16.3408C16.1738 16.485 16.4279 16.5625 16.6875 16.5625C17.0356 16.5625 17.3691 16.4239 17.6152 16.1777C17.8614 15.9316 18 15.5981 18 15.25C18 14.9904 17.9225 14.7363 17.7783 14.5205C17.6341 14.3049 17.4291 14.1364 17.1895 14.0371C16.9498 13.9379 16.6861 13.9123 16.4316 13.9629ZM19.75 0.375C20.2141 0.375 20.6591 0.559507 20.9873 0.887695C21.3155 1.21588 21.5 1.66087 21.5 2.125V7.375C21.5 7.83913 21.3155 8.28412 20.9873 8.6123C20.6591 8.94049 20.2141 9.125 19.75 9.125H2.25C1.78587 9.125 1.34088 8.94049 1.0127 8.6123C0.684507 8.28412 0.5 7.83913 0.5 7.375V2.125C0.5 1.66087 0.684507 1.21588 1.0127 0.887695C1.34088 0.559507 1.78587 0.375 2.25 0.375H19.75ZM16.4316 3.46289C16.177 3.51353 15.9433 3.63871 15.7598 3.82227C15.5762 4.00582 15.451 4.23954 15.4004 4.49414C15.3498 4.74856 15.3754 5.01228 15.4746 5.25195C15.5739 5.49162 15.7424 5.69662 15.958 5.84082C16.1738 5.98504 16.4279 6.0625 16.6875 6.0625C17.0356 6.0625 17.3691 5.92388 17.6152 5.67773C17.8614 5.43159 18 5.0981 18 4.75C18 4.49041 17.9225 4.23635 17.7783 4.02051C17.6341 3.80488 17.4291 3.63638 17.1895 3.53711C16.9498 3.43792 16.6861 3.41232 16.4316 3.46289Z" fill="url(#paint0_linear_181_226)"/>
<defs>
<linearGradient id="paint0_linear_181_226" x1="11" y1="0.375" x2="11" y2="19.625" gradientUnits="userSpaceOnUse">
<stop stop-color="#913DFF"/>
<stop offset="1" stop-color="#572599"/>
</linearGradient>
</defs>
</svg>
