<svg width="25" height="24" viewBox="0 0 25 24" fill="none" xmlns="http://www.w3.org/2000/svg">
<path d="M20.1665 3.75H5.1665C4.76868 3.75 4.38715 3.90804 4.10584 4.18934C3.82454 4.47064 3.6665 4.85218 3.6665 5.25V10.5C3.6665 15.4425 6.059 18.4378 8.06619 20.0803C10.2281 21.8484 12.3787 22.4484 12.4724 22.4738C12.6013 22.5088 12.7373 22.5088 12.8662 22.4738C12.9599 22.4484 15.1078 21.8484 17.2724 20.0803C19.274 18.4378 21.6665 15.4425 21.6665 10.5V5.25C21.6665 4.85218 21.5085 4.47064 21.2272 4.18934C20.9459 3.90804 20.5643 3.75 20.1665 3.75ZM16.949 10.2806L11.699 15.5306C11.6293 15.6004 11.5466 15.6557 11.4556 15.6934C11.3645 15.7312 11.2669 15.7506 11.1684 15.7506C11.0698 15.7506 10.9722 15.7312 10.8812 15.6934C10.7901 15.6557 10.7074 15.6004 10.6378 15.5306L8.38775 13.2806C8.24702 13.1399 8.16796 12.949 8.16796 12.75C8.16796 12.551 8.24702 12.3601 8.38775 12.2194C8.52848 12.0786 8.71936 11.9996 8.91838 11.9996C9.1174 11.9996 9.30827 12.0786 9.449 12.2194L11.1665 13.9397L15.8859 9.21937C15.9556 9.14969 16.0383 9.09442 16.1293 9.0567C16.2204 9.01899 16.318 8.99958 16.4165 8.99958C16.515 8.99958 16.6126 9.01899 16.7037 9.0567C16.7947 9.09442 16.8774 9.14969 16.9471 9.21937C17.0168 9.28906 17.0721 9.37178 17.1098 9.46283C17.1475 9.55387 17.1669 9.65145 17.1669 9.75C17.1669 9.84855 17.1475 9.94613 17.1098 10.0372C17.0721 10.1282 17.0168 10.2109 16.9471 10.2806H16.949Z" fill="url(#paint0_linear_213_200)"/>
<defs>
<linearGradient id="paint0_linear_213_200" x1="12.6665" y1="3.75" x2="12.6665" y2="22.5001" gradientUnits="userSpaceOnUse">
<stop stop-color="#7C3AED"/>
<stop offset="1" stop-color="#7C3AED"/>
</linearGradient>
</defs>
</svg>
