<svg width="25" height="24" viewBox="0 0 25 24" fill="none" xmlns="http://www.w3.org/2000/svg">
<path d="M20.167 3.75H5.16699C4.76917 3.75 4.38764 3.90804 4.10633 4.18934C3.82503 4.47064 3.66699 4.85218 3.66699 5.25V10.5C3.66699 15.4425 6.05949 18.4378 8.06668 20.0803C10.2286 21.8484 12.3792 22.4484 12.4729 22.4738C12.6018 22.5088 12.7378 22.5088 12.8667 22.4738C12.9604 22.4484 15.1082 21.8484 17.2729 20.0803C19.2745 18.4378 21.667 15.4425 21.667 10.5V5.25C21.667 4.85218 21.509 4.47064 21.2277 4.18934C20.9463 3.90804 20.5648 3.75 20.167 3.75ZM16.9495 10.2806L11.6995 15.5306C11.6298 15.6004 11.5471 15.6557 11.4561 15.6934C11.365 15.7312 11.2674 15.7506 11.1689 15.7506C11.0703 15.7506 10.9727 15.7312 10.8817 15.6934C10.7906 15.6557 10.7079 15.6004 10.6382 15.5306L8.38824 13.2806C8.24751 13.1399 8.16845 12.949 8.16845 12.75C8.16845 12.551 8.24751 12.3601 8.38824 12.2194C8.52897 12.0786 8.71984 11.9996 8.91887 11.9996C9.11789 11.9996 9.30876 12.0786 9.44949 12.2194L11.167 13.9397L15.8864 9.21937C15.956 9.14969 16.0388 9.09442 16.1298 9.0567C16.2209 9.01899 16.3184 8.99958 16.417 8.99958C16.5155 8.99958 16.6131 9.01899 16.7042 9.0567C16.7952 9.09442 16.8779 9.14969 16.9476 9.21937C17.0173 9.28906 17.0726 9.37178 17.1103 9.46283C17.148 9.55387 17.1674 9.65145 17.1674 9.75C17.1674 9.84855 17.148 9.94613 17.1103 10.0372C17.0726 10.1282 17.0173 10.2109 16.9476 10.2806H16.9495Z" fill="url(#paint0_linear_130_331)"/>
<defs>
<linearGradient id="paint0_linear_130_331" x1="12.667" y1="3.75" x2="12.667" y2="22.5001" gradientUnits="userSpaceOnUse">
<stop stop-color="#913DFF"/>
<stop offset="1" stop-color="#572599"/>
</linearGradient>
</defs>
</svg>
