<svg width="24" height="20" viewBox="0 0 24 20" fill="none" xmlns="http://www.w3.org/2000/svg">
<path d="M21.625 0.375H2.375C1.91087 0.375 1.46575 0.559374 1.13756 0.887563C0.809374 1.21575 0.625 1.66087 0.625 2.125V17.875C0.625 18.3391 0.809374 18.7842 1.13756 19.1124C1.46575 19.4406 1.91087 19.625 2.375 19.625H21.625C22.0891 19.625 22.5342 19.4406 22.8624 19.1124C23.1906 18.7842 23.375 18.3391 23.375 17.875V2.125C23.375 1.66087 23.1906 1.21575 22.8624 0.887563C22.5342 0.559374 22.0891 0.375 21.625 0.375ZM12 13.5C10.6081 13.4986 9.27354 12.945 8.28929 11.9607C7.30504 10.9765 6.75145 9.64194 6.75 8.25C6.75 8.01794 6.84219 7.79538 7.00628 7.63128C7.17038 7.46719 7.39294 7.375 7.625 7.375C7.85706 7.375 8.07962 7.46719 8.24372 7.63128C8.40781 7.79538 8.5 8.01794 8.5 8.25C8.5 9.17826 8.86875 10.0685 9.52513 10.7249C10.1815 11.3813 11.0717 11.75 12 11.75C12.9283 11.75 13.8185 11.3813 14.4749 10.7249C15.1313 10.0685 15.5 9.17826 15.5 8.25C15.5 8.01794 15.5922 7.79538 15.7563 7.63128C15.9204 7.46719 16.1429 7.375 16.375 7.375C16.6071 7.375 16.8296 7.46719 16.9937 7.63128C17.1578 7.79538 17.25 8.01794 17.25 8.25C17.2486 9.64194 16.695 10.9765 15.7107 11.9607C14.7265 12.945 13.3919 13.4986 12 13.5ZM2.375 3.875V2.125H21.625V3.875H2.375Z" fill="url(#paint0_linear_181_396)"/>
<defs>
<linearGradient id="paint0_linear_181_396" x1="12" y1="0.375" x2="12" y2="19.625" gradientUnits="userSpaceOnUse">
<stop stop-color="#913DFF"/>
<stop offset="1" stop-color="#572599"/>
</linearGradient>
</defs>
</svg>
