<svg width="16" height="16" viewBox="0 0 16 16" fill="none" xmlns="http://www.w3.org/2000/svg">
<path d="M14.5001 8.00011C14.5001 6.71452 14.1189 5.45779 13.4047 4.38885C12.6905 3.31991 11.6753 2.48677 10.4876 1.99479C9.29984 1.50281 7.99289 1.37409 6.732 1.6249C5.47111 1.87572 4.31291 2.4948 3.40386 3.40386C2.4948 4.31291 1.87572 5.47111 1.6249 6.732C1.37409 7.99289 1.50281 9.29984 1.99479 10.4876C2.48677 11.6753 3.31991 12.6905 4.38885 13.4047C5.45779 14.1189 6.71452 14.5001 8.00011 14.5001H8.00574C9.72867 14.4986 11.3805 13.8131 12.5983 12.5943C13.8161 11.3755 14.5001 9.72305 14.5001 8.00011ZM3.07386 5.55761L6.27449 6.14199L2.91574 10.0957C2.61905 9.37129 2.47971 8.59205 2.50697 7.80968C2.53424 7.0273 2.72747 6.25966 3.07386 5.55761ZM13.0845 5.90386C13.3812 6.62842 13.5205 7.40776 13.4933 8.19024C13.466 8.97271 13.2728 9.74047 12.9264 10.4426L9.72574 9.85824L13.0845 5.90386ZM12.5795 4.95386L10.472 7.43761L8.72699 2.54886C9.92497 2.70554 11.0372 3.25505 11.8895 4.11136C12.1466 4.36888 12.3777 4.65108 12.5795 4.95386ZM7.65199 2.51199L8.74637 5.57449L3.64386 4.64511C3.78799 4.45726 3.94393 4.27878 4.11074 4.11074C5.05523 3.16169 6.31549 2.59273 7.65199 2.51199ZM3.42074 11.0464L5.52824 8.56261L7.27324 13.4489C6.49687 13.3454 5.75156 13.0773 5.08716 12.6626C4.42277 12.2478 3.85462 11.6959 3.42074 11.0439V11.0464ZM8.34824 13.4876L7.25386 10.4251L8.69636 10.6876L12.3539 11.3557C11.8775 11.9775 11.2731 12.4897 10.5816 12.8576C9.89005 13.2255 9.12758 13.4406 8.34574 13.4882L8.34824 13.4876Z" fill="url(#paint0_linear_42_1594)"/>
<defs>
<linearGradient id="paint0_linear_42_1594" x1="8.00006" y1="1.5" x2="8.00006" y2="14.5001" gradientUnits="userSpaceOnUse">
<stop stop-color="#913DFF"/>
<stop offset="1" stop-color="#572599"/>
</linearGradient>
</defs>
</svg>
