<svg width="14" height="14" viewBox="0 0 14 14" fill="none" xmlns="http://www.w3.org/2000/svg">
<path d="M13.5001 7.00011C13.5001 5.71452 13.1189 4.45779 12.4047 3.38885C11.6905 2.31991 10.6753 1.48677 9.48757 0.994792C8.29984 0.502813 6.99289 0.374092 5.732 0.624905C4.47111 0.875718 3.31291 1.4948 2.40386 2.40386C1.4948 3.31291 0.875718 4.47111 0.624905 5.732C0.374092 6.99289 0.502813 8.29984 0.994792 9.48757C1.48677 10.6753 2.31991 11.6905 3.38885 12.4047C4.45779 13.1189 5.71452 13.5001 7.00011 13.5001H7.00574C8.72867 13.4986 10.3805 12.8131 11.5983 11.5943C12.8161 10.3755 13.5001 8.72305 13.5001 7.00011ZM2.07386 4.55761L5.27449 5.14199L1.91574 9.09574C1.61905 8.37129 1.47971 7.59205 1.50697 6.80968C1.53424 6.0273 1.72747 5.25966 2.07386 4.55761ZM12.0845 4.90386C12.3812 5.62842 12.5205 6.40776 12.4933 7.19024C12.466 7.97271 12.2728 8.74047 11.9264 9.44261L8.72574 8.85824L12.0845 4.90386ZM11.5795 3.95386L9.47199 6.43761L7.72699 1.54886C8.92497 1.70554 10.0372 2.25505 10.8895 3.11136C11.1466 3.36888 11.3777 3.65108 11.5795 3.95386ZM6.65199 1.51199L7.74637 4.57449L2.64386 3.64511C2.78799 3.45726 2.94393 3.27878 3.11074 3.11074C4.05523 2.16169 5.31549 1.59273 6.65199 1.51199ZM2.42074 10.0464L4.52824 7.56261L6.27324 12.4489C5.49687 12.3454 4.75156 12.0773 4.08716 11.6626C3.42277 11.2478 2.85462 10.6959 2.42074 10.0439V10.0464ZM7.34824 12.4876L6.25386 9.42511L7.69636 9.68761L11.3539 10.3557C10.8775 10.9775 10.2731 11.4897 9.58155 11.8576C8.89005 12.2255 8.12758 12.4406 7.34574 12.4882L7.34824 12.4876Z" fill="url(#paint0_linear_130_328)"/>
<defs>
<linearGradient id="paint0_linear_130_328" x1="7.00006" y1="0.5" x2="7.00006" y2="13.5001" gradientUnits="userSpaceOnUse">
<stop stop-color="#913DFF"/>
<stop offset="1" stop-color="#572599"/>
</linearGradient>
</defs>
</svg>
